HIERARCHY
ROOT Hips
{
	OFFSET 0.000000 0.000000 0.000000 
	CHANNELS 6 Xposition Yposition Zposition Zrotation Yrotation Xrotation
	JOINT LeftUpLeg
	{
		OFFSET 1.363060 -1.794630 0.839290 
		CHANNELS 3 Zrotation Yrotation Xrotation
		JOINT LeftLeg
		{
			OFFSET 2.448110 -6.726130 0.000000 
			CHANNELS 3 Zrotation Yrotation Xrotation
			JOINT LeftFoot
			{
				OFFSET 2.562200 -7.039590 0.000000 
				CHANNELS 3 Zrotation Yrotation Xrotation
				JOINT LeftToeBase
				{
					OFFSET 0.157640 -0.433110 2.322550 
					CHANNELS 3 Zrotation Yrotation Xrotation
					End Site
					{
						OFFSET 0.000000 0.000000 0.000000 
					}
				}
			}
		}
	}
	JOINT RightUpLeg
	{
		OFFSET -1.305520 -1.794630 0.839290 
		CHANNELS 3 Zrotation Yrotation Xrotation
		JOINT RightLeg
		{
			OFFSET -2.542530 -6.985550 0.000000 
			CHANNELS 3 Zrotation Yrotation Xrotation
			JOINT RightFoot
			{
				OFFSET -2.568260 -7.056230 0.000000 
				CHANNELS 3 Zrotation Yrotation Xrotation
				JOINT RightToeBase
				{
					OFFSET -0.164730 -0.452590 2.363150 
					CHANNELS 3 Zrotation Yrotation Xrotation
					End Site
					{
						OFFSET 0.000000 0.000000 0.000000 
					}
				}
			}
		}
	}
	JOINT Spine
	{
		OFFSET 0.028270 2.035590 -0.193380 
		CHANNELS 3 Zrotation Yrotation Xrotation
		JOINT Spine1
		{
			OFFSET 0.056720 2.048850 -0.042750 
			CHANNELS 3 Zrotation Yrotation Xrotation
			JOINT Neck1
			{
				OFFSET -0.054170 1.746240 0.172020 
				CHANNELS 3 Zrotation Yrotation Xrotation
				JOINT Head
				{
					OFFSET 0.104070 1.761360 -0.123970 
					CHANNELS 3 Zrotation Yrotation Xrotation
					End Site
					{
						OFFSET 0.000000 0.000000 0.000000 
					}
				}
			}
			JOINT LeftArm
			{
				OFFSET 3.362410 1.200890 -0.311210 
				CHANNELS 3 Zrotation Yrotation Xrotation
				JOINT LeftForeArm
				{
					OFFSET 4.983000 -0.000000 -0.000000 
					CHANNELS 3 Zrotation Yrotation Xrotation
					JOINT LeftHand
					{
						OFFSET 3.483560 -0.000000 -0.000000 
						CHANNELS 3 Zrotation Yrotation Xrotation
						JOINT LeftHandIndex1
						{
							OFFSET 0.715260 -0.000000 -0.000000 
							CHANNELS 3 Zrotation Yrotation Xrotation
							End Site
							{
								OFFSET 0.000000 0.000000 0.000000 
							}
						}
					}
				}
			}
			JOINT RightArm
			{
				OFFSET -3.136600 1.374050 -0.404650 
				CHANNELS 3 Zrotation Yrotation Xrotation
				JOINT RightForeArm
				{
					OFFSET -5.241900 -0.000000 -0.000000 
					CHANNELS 3 Zrotation Yrotation Xrotation
					JOINT RightHand
					{
						OFFSET -3.444170 -0.000000 -0.000000 
						CHANNELS 3 Zrotation Yrotation Xrotation
						JOINT RightHandIndex1
						{
							OFFSET -0.622530 -0.000000 -0.000000 
							CHANNELS 3 Zrotation Yrotation Xrotation
							End Site
							{
								OFFSET 0.000000 0.000000 0.000000 
							}
						}
					}
				}
			}
		}
	}
}
MOTION
Frames: 8
Frame Time: 0.041667
47.256464 54.572904 -3.356826 144.893159 -35.472232 -168.146191 51.219610 36.115209 -8.793920 -69.179986 55.188119 51.327268 -84.367301 -70.582046 162.596066 0.102500 -2.064400 -5.683700 -147.482737 88.489309 -108.925088 94.638506 -86.692900 -8.962823 -149.150044 -63.077342 179.856773 -0.137400 2.389300 -6.582900 -56.291412 -39.287932 96.761144 -134.513026 -59.484308 175.111790 -10.312330 -43.433828 -53.538233 8.991700 -11.974400 8.020100 122.779111 77.613260 -84.389188 24.114275 7.396568 44.974025 68.274450 7.193806 109.375339 -7.125000 0.000000 0.000000 -132.578110 58.927045 144.497010 -78.234357 -45.548715 -158.927148 -48.920546 35.326578 -126.413983 7.125000 0.000000 0.000000 
46.691516 54.626345 -2.429409 -103.102944 -14.468900 -49.215367 -143.851689 36.311762 81.555403 150.786454 -10.475250 97.087991 139.854838 86.526154 139.228316 0.363900 -3.874900 -10.725000 18.141208 -88.544692 -81.237877 167.098063 83.040994 -9.327820 -49.366033 -69.914248 61.842081 -0.109600 2.134200 -5.876600 -135.381021 -51.340284 176.367025 83.646665 49.642826 79.713351 -43.222246 12.323922 50.350185 8.828200 -11.973400 7.973400 174.675340 53.081607 165.585756 -79.462385 -65.365499 -40.382920 58.044469 51.071234 22.802282 -7.125000 0.000000 0.000000 -81.894249 43.555504 99.590885 14.890897 51.378363 105.358102 -140.146677 -76.378701 -123.153357 7.125000 0.000000 0.000000 
46.095698 54.615391 -1.548794 177.369233 -6.122450 74.059471 -35.453186 73.473539 -5.919778 153.154362 -64.743441 81.031468 0.961084 1.720641 44.092433 0.591700 -4.924900 -13.694400 -152.793957 -44.499794 160.787438 166.371809 72.321698 42.252918 -61.422708 9.368076 151.149444 -0.159300 2.571300 -7.087500 67.446134 -55.686148 -152.530366 44.498458 59.629448 36.464661 -129.538056 -51.384200 132.473444 8.703600 -11.932300 7.868100 -48.744213 62.296195 -41.039887 135.102536 46.979633 -80.269576 2.309741 37.029160 -90.061670 -7.125000 0.000000 0.000000 -164.738557 -1.241970 14.442489 -29.825101 -14.473611 35.762412 86.696705 -44.352608 12.119351 7.125000 0.000000 0.000000 
45.479633 54.559959 -0.634985 165.387982 35.994576 12.247027 -113.927093 6.629465 -69.702100 108.847281 -1.779624 -29.399960 19.627668 70.671191 38.924483 0.903600 -6.057700 -16.952000 -92.156661 -65.254998 13.439988 157.471113 -62.502555 127.417888 -143.916523 33.985998 -71.830673 -0.414900 4.134800 -11.456200 27.171157 51.583201 -121.309163 169.759594 -89.504325 -90.519010 -119.590456 -13.528246 9.294041 8.707600 -11.915800 7.697500 -82.698138 6.464652 33.808279 -15.819379 -66.186244 16.206280 -23.208610 -14.686993 25.755553 -7.125000 0.000000 0.000000 -51.405763 76.262093 89.904497 33.845595 59.368855 -176.528867 40.694589 -52.232428 -74.103008 7.125000 0.000000 0.000000 
44.823404 54.441127 0.283802 53.511302 -60.555312 98.976758 -42.699720 -13.013811 -112.775418 110.401560 -0.211486 -118.152566 2.664626 56.200829 18.009350 1.935500 -8.730300 -24.955300 -142.106177 -52.342689 129.162559 34.344938 37.708110 -141.355779 119.539231 0.605830 169.863667 -0.863000 5.923800 -16.563500 68.778015 -82.866515 100.763946 50.780437 -84.886992 -179.642430 49.586512 -22.518298 18.937837 8.749900 -11.947300 7.763900 57.350800 -24.114857 -27.404079 -32.390963 -43.721635 -50.551973 179.732342 70.808301 123.412122 -7.125000 0.000000 0.000000 -13.945577 22.275430 160.026247 -30.176979 -65.115572 91.509191 127.314295 72.036150 68.112016 7.125000 0.000000 0.000000 
44.094813 54.355157 1.162757 102.910944 -64.033463 -16.950683 -170.535434 13.018457 81.736773 -53.676152 -45.577037 73.825994 -34.790825 30.328347 -139.675992 2.987600 -10.675000 -31.191500 61.591707 43.857049 -171.593131 125.481071 -80.558594 -125.207214 43.353162 21.259854 177.854474 -1.220300 7.006900 -19.735700 61.141173 87.275226 38.402050 68.789526 36.464722 141.265115 -38.268476 19.559410 -140.128404 8.845600 -11.944600 7.967200 -14.980813 -51.967629 155.180848 97.952107 -48.055221 -61.431854 -101.059721 70.998520 115.311035 -7.125000 0.000000 0.000000 65.893234 78.953107 132.761842 72.230487 -84.075357 -173.060096 9.809044 -23.491054 -49.348230 7.125000 0.000000 0.000000 
43.457173 54.192178 2.070590 -53.753413 -36.452049 -173.196508 -0.191785 71.305933 -46.125789 96.491248 -1.100929 -61.368935 6.753283 -39.304874 -90.719999 3.288000 -11.147200 -32.778100 -51.110578 -26.210922 -142.876820 41.708801 -75.685025 -26.589515 -48.708821 -69.765774 170.498492 -1.271600 7.147000 -20.151700 -121.035442 -76.103521 37.650445 -72.098964 -62.829612 -134.678366 -27.758644 -2.684398 -63.595820 8.740500 -11.876500 8.098400 -135.486049 24.151681 113.672958 6.342932 -42.750071 73.705579 -40.128495 57.563360 -37.757546 -7.125000 0.000000 0.000000 151.690920 -44.665188 -27.718224 19.412020 85.667264 34.623108 -1.448998 -44.905233 38.319843 7.125000 0.000000 0.000000 
42.747502 54.083637 2.914693 123.501507 -56.614378 116.157081 -81.848961 -37.009067 -39.593579 -92.558375 4.573891 -90.626739 -52.213090 -85.707252 -77.695778 3.623200 -11.641400 -34.475000 145.738675 24.344362 -140.512177 30.344799 2.348023 -19.126542 33.269854 48.712102 -26.375542 -1.039500 6.484300 -18.196300 -29.565909 81.441437 34.694331 48.899302 -73.635519 -70.010042 -23.590103 80.098113 108.622170 8.489600 -11.861300 8.127500 33.859029 -14.793379 -133.870134 -146.343121 -53.330785 -178.621695 83.512390 9.045437 36.307203 -7.125000 0.000000 0.000000 158.185746 3.093267 -126.945791 163.314792 -6.446239 -81.954918 54.863900 34.989024 37.088109 7.125000 0.000000 0.000000 
